<?xml version="1.0" encoding="UTF-8"?>
<!-- Generator: Adobe Illustrator 16.0.0, SVG Export Plug-In . SVG Version: 6.00 Build 0)  -->
<!DOCTYPE svg PUBLIC "-//W3C//DTD SVG 1.1//EN" "http://www.w3.org/Graphics/SVG/1.1/DTD/svg11.dtd" [
	<!ENTITY ns_flows "http://ns.adobe.com/Flows/1.0/">
	<!ENTITY ns_extend "http://ns.adobe.com/Extensibility/1.0/">
	<!ENTITY ns_ai "http://ns.adobe.com/AdobeIllustrator/10.0/">
	<!ENTITY ns_graphs "http://ns.adobe.com/Graphs/1.0/">
]>
<svg version="1.1" id="Layer_1" xmlns:x="http://ns.adobe.com/Extensibility/1.0/" xmlns:i="http://ns.adobe.com/AdobeIllustrator/10.0/" xmlns:graph="http://ns.adobe.com/Graphs/1.0/" xmlns="http://www.w3.org/2000/svg" xmlns:xlink="http://www.w3.org/1999/xlink" xmlns:a="http://ns.adobe.com/AdobeSVGViewerExtensions/3.0/" x="0px" y="0px" width="864px" height="864px" viewBox="0 0 864 864" enable-background="new 0 0 864 864" xml:space="preserve">
<path fill-rule="evenodd" clip-rule="evenodd" fill="#F9ED32" d="M506.343,255.732c0.591-7.484,0.507-13.702,9.345-16.682  c10.329-3.482,12.339-16.417,4.039-23.546c-3.888-3.341-4.415-6.406-3.464-10.909c3.901-18.47,7.548-36.995,11.361-55.485  c0.389-1.886,1.262-3.673,3.803-6.047c7.162,16.786,14.325,33.571,21.806,51.104c10.617-9.053,20.582-17.55,30.547-26.047  c1.317-1.123,2.493-2.518,3.991-3.292c1.602-0.827,4.035-1.965,5.134-1.318c1.176,0.692,1.763,3.339,1.668,5.082  c-0.611,11.173-1.736,22.322-2.182,33.499c-0.342,8.603,2.193,10.483,10.341,7.157c14.928-6.095,29.546-12.945,44.428-19.158  c3.417-1.427,7.377-1.551,11.087-2.274c0.473,0.691,0.945,1.382,1.418,2.072c-2.584,3.673-5.006,7.474-7.78,10.996  c-11.833,15.02-23.686,30.026-35.783,44.831c-1.356,1.66-4.656,3.252-6.475,2.756c-8.384-2.292-14.749,0.537-19.766,6.866  c-4.839,6.106-2.298,12.147,1.149,17.73c-3.041,7.545-7.447,6.852-14.228,4.481c-20.822-7.282-42.041-13.429-63.117-19.979  C511.35,256.851,508.957,256.381,506.343,255.732z M581.994,237.053c0.051-12.105-10.342-22.172-23.088-22.364  c-12.26-0.186-23.39,10.392-23.338,22.179c0.054,12.001,10.787,22.023,23.509,21.949  C571.397,258.745,581.946,248.727,581.994,237.053z"/>
<g>
	<path fill-rule="evenodd" clip-rule="evenodd" fill="#009444" d="M70.012,451.636c2.782-7.156,4.988-14.605,8.442-21.42   c17.909-35.341,42.579-65.178,73.261-90.305c32.614-26.707,69.167-46.294,108.415-60.894c29.691-11.045,60.572-18.627,91.95-22.133   c27.259-3.046,54.992-4.142,82.392-3.048c33.849,1.352,67.265,7.058,100.008,16.812c49.279,14.681,94.041,37.299,132.274,71.889   c12.013,10.867,22.81,23.077,34.162,34.673c-0.311,0.74-0.622,1.481-0.933,2.222c-12.186,0.384-24.366,0.92-36.555,1.119   c-27.293,0.446-49.943,10.385-65.188,33.536c-14.721,22.356-10.188,49.522,8.037,68.612c19.255,20.168,42.987,26.8,69.381,24.241   c19.953-1.935,36.186-11.688,45.766-30.355c2.774-5.407,12.591-9.628,17.516-6.841c1.883,1.066,3.56,4.248,3.616,6.509   c0.388,15.265,0.942,30.57,0.257,45.81c-1.282,28.491-10.607,54.844-23.999,79.707c-9.699,18.009-21.444,34.625-35.359,49.84   c-25.498,27.877-54.851,50.657-88.143,68.208c-29.942,15.785-61.047,28.859-94.384,35.903c-15.808,3.34-31.452,8.015-47.429,9.858   c-20.361,2.351-40.972,2.743-61.495,3.456c-44.013,1.529-86.964-5.555-128.887-18.264c-43.246-13.111-83.292-32.995-118.185-62.09   c-36-30.018-63.575-66.014-77.886-111.459c-7.228-22.956-9.454-46.254-8.503-70.047c0.076-1.912,1.562-3.768,2.392-5.649   c1.771,1.344,4.428,2.312,5.18,4.087c11.535,27.22,33.762,37.326,61.456,39.061c26.302,1.648,49.907-5.793,69.354-23.257   c32.417-29.112,26.383-70.706-7.288-90.841c-15.07-9.012-31.558-10.284-49.085-8.645c-20.461,1.913-38.642,8.664-55.528,19.666   c-4.831,3.148-9.023,7.276-13.508,10.954C71.015,452.247,70.513,451.941,70.012,451.636z M480.098,563.531   c6.234-2.747,12.171-5.571,18.263-8.01c32.689-13.085,59.626-33.156,77.171-64.271c11.393-20.202,13.888-42.172,7.709-64.185   c-7.957-28.351-27.498-48.353-51.756-63.807c-31.383-19.993-66.528-29.157-103.093-31.554   c-37.675-2.47-74.602,2.408-110.123,16.743c-33.658,13.583-62.973,32.176-81.813,64.246c-12.165,20.705-15.652,42.951-8.991,66.114   c10.236,35.585,36.057,57.198,67.636,73.227c7.657,3.887,15.609,7.191,23.984,11.019c-1.554,1.34-2.203,2.154-3.047,2.586   c-8.622,4.415-16.832,10.205-16.289,20.619c0.552,10.582,9.458,15.812,18.343,20.049c20.765,9.901,43.092,12.861,65.634,14.355   c22.078,1.464,43.974-1.027,65.44-6.068c14.071-3.304,28.016-7.716,38.988-17.938c8.452-7.874,9.11-16.688,1.896-24.626   C487.155,568.842,483.471,566.37,480.098,563.531z"/>
	<path fill-rule="evenodd" clip-rule="evenodd" fill="#009444" d="M350.178,244.182c-1.718-17.095-1.655-33.844,4.528-49.63   c6.439-16.441,18.773-27.594,38.845-27.844c19.051-0.237,31.545,6.089,35.427,18.23c3.824,11.96,4.206,24.152,1.355,36.402   c-1.329,5.713-2.829,11.387-4.154,17.102c-2.009,8.672-8.879,3.711-13.477,4.584c-4.658,0.885-4.575-3.076-4.742-6.468   c-0.312-6.38-0.96-12.743-1.357-19.12c-0.462-7.42-4.535-12.101-11.592-13.022c-11.311-1.476-16.812,1.593-19.483,11.035   c-2.584,9.133-4.069,18.578-6.215,28.731C363.963,244.182,357.398,244.182,350.178,244.182z"/>
	<path fill-rule="evenodd" clip-rule="evenodd" fill="#009444" d="M234.927,269.867c-4.604-6.435-9.123-12.827-13.724-19.161   c-4.542-6.252-10.927-7.674-17.37-3.915c-2.946,1.719-5.743,3.715-8.77,5.273c-9.595,4.935-9.722,8.542-3.923,19.181   c1.625,2.982,3.879,5.841,6.458,8.039c4.985,4.249,2.933,6.964-1.512,9.263c-3.672,1.899-7.476,3.591-11.354,5.013   c-1.021,0.375-2.979-0.171-3.752-0.998c-8.563-9.168-17.133-18.344-25.276-27.881c-1.292-1.514-1.2-5.037-0.527-7.261   c3.127-10.339,11.928-15.877,19.814-22.009c5.03-3.912,10.567-7.18,15.921-10.668c13.428-8.752,24.833-8.605,36.043,2.589   c8.894,8.879,16.131,19.421,24.089,29.236c2.886,3.56,2.626,6.028-2.189,7.636C244.24,265.745,239.814,267.853,234.927,269.867z"/>
	<path fill-rule="evenodd" clip-rule="evenodd" fill="#009444" d="M409.477,339.548c33.412,0.023,65.708,5.872,95.837,20.222   c24.706,11.767,46.483,27.878,59.509,52.974c14.511,27.961,12.133,55.488-4.211,81.958c-14.57,23.597-36.294,38.624-60.836,50.399   c-28.111,13.489-57.67,19.354-88.738,21.192c-32.599,1.929-63.962-2.858-93.892-14.398c-30.236-11.659-56.843-29.3-72.091-59.688   c-13.624-27.15-11.172-53.805,4.277-79.27c16.935-27.914,42.804-45.134,72.638-56.269c16.834-6.283,34.396-11.012,51.995-14.706   C385.463,339.549,397.616,340.245,409.477,339.548z M312.571,446.804c-0.036,16.932,9.099,33.778,23.831,41.521   c21.473,11.285,41.743,0.372,44.323-22.037c2.133-18.536-6.208-33.495-21.474-44.098c-10.212-7.093-21.647-8.543-32.691-2.503   C316.23,425.335,312.014,435.065,312.571,446.804z M496.17,447.436c0-3.036,0.121-5.035-0.02-7.015   c-0.953-13.316-14.178-27.527-32.36-18.318c-13.98,7.08-19.801,24.684-18.004,37.262c1.36,9.523,5.903,17.514,15.411,20.461   c9.458,2.933,18.274-0.31,24.983-7.369C492.976,465.307,497.389,456.815,496.17,447.436z"/>
</g>
<g>
	<path fill-rule="evenodd" clip-rule="evenodd" fill="#FFFFFF" d="M720.901,446.66c-0.022,29.952-17.19,50.06-47.021,53.672   c-25.872,3.132-48.368-4.448-65.423-24.788c-17.142-20.444-16.146-48.019,2.504-67.078c18.721-19.13,41.886-25.543,67.745-19.874   C704.188,394.179,720.923,418.071,720.901,446.66z M703.768,448.314c-0.062-9.24-7.863-16.824-17.276-16.797   c-9.478,0.027-17.128,7.589-17.105,16.909c0.021,9.282,7.802,16.882,17.216,16.818C695.991,465.181,703.83,457.449,703.768,448.314   z"/>
	<path fill-rule="evenodd" clip-rule="evenodd" fill="#FFFFFF" d="M146.188,429.416c16.47-0.108,31.627,3.757,44.329,14.737   c19.151,16.555,22.073,40.981,7.527,61.597c-21.118,29.927-70.115,40.073-101.39,20.995c-26.502-16.166-31.068-53.376-8.941-75.328   C103.826,435.431,124.074,429.748,146.188,429.416z M121.352,498.229c11.975-0.757,20.966-8.088,20.891-17.618   c-0.074-9.37-9.349-17.026-20.912-16.433c-4.266,0.219-8.938,1.461-12.557,3.663c-10.531,6.406-10.387,19.735,0.206,26.052   C112.658,496.086,117.203,496.825,121.352,498.229z"/>
	<path fill-rule="evenodd" clip-rule="evenodd" fill="#FFFFFF" d="M505.343,234.221c-1.942-2.1-6.533-4.794-6.985-8.062   c-0.772-5.569,4.406-7.864,9.403-7.886c4.684-0.021,9.177,1.924,9.347,7.391C517.295,231.694,512.405,232.975,505.343,234.221z"/>
	<path fill-rule="evenodd" clip-rule="evenodd" fill="#FFFFFF" d="M604.048,273.751c-4.068-4.739-8.424-7.533-8.854-10.837   c-0.674-5.195,4.185-7.39,9.057-7.675c5.137-0.3,11.082,4.415,9.543,8.021C612.317,266.719,608.479,269.171,604.048,273.751z"/>
	<path fill-rule="evenodd" clip-rule="evenodd" fill="#FFFFFF" d="M559.26,222.313c8.763,0.181,15.396,6.821,15.087,15.1   c-0.292,7.821-7.139,13.88-15.626,13.826c-8.59-0.055-15.973-6.955-15.751-14.723C543.194,228.62,550.632,222.136,559.26,222.313z"/>
</g>
<g>
	<path fill-rule="evenodd" clip-rule="evenodd" d="M176.901,305.417c-10.238-11.338-19.762-22.176-29.635-32.686   c-4.398-4.682-6.669-9.995-3.647-15.542c4.436-8.141,8.762-17.08,15.464-23.075c9.911-8.864,21.547-15.974,33.038-22.845   c12.013-7.184,27.846-4.738,39.584,5.21c15.557,13.186,27.769,29.035,36.533,47.686c1.124-0.072,2.115,0.003,3.039-0.213   c22.689-5.308,45.372-10.646,67.919-15.948c0-13.338-1.257-27.312,0.238-40.985c4.301-39.346,36.47-60.317,74.846-49.837   c16.115,4.4,25.245,14.866,28.178,31.217c2.897,16.158-0.238,31.667-4.398,47.123c-0.694,2.582-1.356,5.171-2.123,8.096   c20.522,1.882,40.444,3.709,62.747,5.754c-1.452-3.659-1.773-7.504-3.853-9.217c-13.243-10.911-11.979-24.802,3.895-31.031   c6.111-2.398,8.128-5.857,9.227-11.597c3.882-20.264,8.085-40.467,12.241-60.677c0.496-2.406,0.846-5.268,2.35-6.939   c2.193-2.438,5.184-4.78,8.229-5.505c1.137-0.271,3.988,3.87,5.023,6.42c5.871,14.47,11.43,29.066,17.449,44.529   c13.966-9.989,27.217-19.527,40.555-28.939c1.972-1.391,4.4-3.158,6.549-3.071c5.079,0.206,5.354,4.206,4.946,8.228   c-1.279,12.622-2.614,25.24-3.77,37.874c-0.308,3.365-0.046,6.783-0.046,11.743c5.407-2.172,9.718-3.724,13.878-5.609   c15.164-6.868,30.11-14.257,45.513-20.532c4.552-1.855,10.337-0.684,15.557-0.899c-1.545,4.78-1.988,10.375-4.819,14.202   c-14.938,20.179-30.407,39.967-45.875,59.747c-2.713,3.47-4.421,6.091-2.879,11.118c2.731,8.904-3.883,17.037-14.738,19.609   c-3.724,0.883-7.534,1.4-11.649,3.768c3.132,1.7,6.245,3.437,9.397,5.096c45.978,24.195,85.624,55.943,112.716,100.766   c48.995,81.061,45.011,161.883-6.362,240.167c-34.787,53.009-84.956,88.05-142.375,113.107   c-49.966,21.805-102.415,33.227-156.808,36.499c-55.676,3.35-110.377-1.464-163.673-18.396   c-62.006-19.702-115.176-52.64-154.336-105.698c-31.781-43.061-47.276-91.646-46.774-145.072   c0.569-60.67,25.257-111.488,67.117-153.908c16.472-16.692,36.252-30.125,54.563-44.995   C171.831,308.618,173.986,307.387,176.901,305.417z M70.012,451.636c0.501,0.306,1.003,0.611,1.504,0.916   c4.485-3.678,8.678-7.806,13.508-10.954c16.886-11.002,35.067-17.753,55.528-19.666c17.527-1.639,34.016-0.367,49.085,8.645   c33.67,20.135,39.704,61.729,7.288,90.841c-19.447,17.464-43.052,24.905-69.354,23.257c-27.694-1.734-49.921-11.841-61.456-39.061   c-0.752-1.775-3.409-2.743-5.18-4.087c-0.83,1.882-2.315,3.737-2.392,5.649c-0.951,23.793,1.275,47.091,8.503,70.047   c14.311,45.445,41.886,81.441,77.886,111.459c34.893,29.095,74.938,48.979,118.185,62.09   c41.923,12.709,84.875,19.793,128.887,18.264c20.522-0.713,41.133-1.105,61.495-3.456c15.977-1.844,31.621-6.519,47.429-9.858   c33.337-7.044,64.441-20.118,94.384-35.903c33.292-17.551,62.645-40.331,88.143-68.208c13.915-15.215,25.66-31.831,35.359-49.84   c13.392-24.863,22.717-51.216,23.999-79.707c0.686-15.239,0.131-30.545-0.257-45.81c-0.057-2.261-1.733-5.442-3.616-6.509   c-4.925-2.787-14.741,1.434-17.516,6.841c-9.58,18.668-25.812,28.421-45.766,30.355c-26.394,2.559-50.126-4.073-69.381-24.241   c-18.226-19.09-22.758-46.256-8.037-68.612c15.245-23.151,37.896-33.09,65.188-33.536c12.188-0.199,24.369-0.735,36.555-1.119   c0.311-0.741,0.622-1.482,0.933-2.222c-11.353-11.596-22.149-23.806-34.162-34.673c-38.233-34.59-82.995-57.208-132.274-71.889   c-32.743-9.755-66.159-15.46-100.008-16.812c-27.4-1.094-55.132,0.002-82.392,3.048c-31.378,3.505-62.259,11.088-91.95,22.133   c-39.248,14.6-75.801,34.187-108.415,60.894c-30.683,25.127-55.353,54.964-73.261,90.305C75,437.03,72.794,444.479,70.012,451.636z    M720.901,446.66c0.021-28.589-16.714-52.481-42.195-58.068c-25.859-5.67-49.024,0.744-67.745,19.874   c-18.65,19.06-19.646,46.634-2.504,67.078c17.055,20.34,39.551,27.92,65.423,24.788C703.711,496.72,720.879,476.612,720.901,446.66   z M146.188,429.416c-22.113,0.332-42.361,6.015-58.475,22c-22.127,21.952-17.562,59.162,8.941,75.328   c31.275,19.078,80.272,8.932,101.39-20.995c14.545-20.615,11.624-45.042-7.527-61.597   C177.815,433.173,162.657,429.308,146.188,429.416z M506.343,255.732c2.614,0.649,5.007,1.119,7.322,1.838   c21.076,6.55,42.295,12.697,63.117,19.979c6.78,2.371,11.187,3.064,14.228-4.481c-3.447-5.583-5.988-11.625-1.149-17.73   c5.017-6.33,11.382-9.159,19.766-6.866c1.818,0.497,5.118-1.096,6.475-2.756c12.098-14.805,23.95-29.811,35.783-44.831   c2.774-3.522,5.196-7.323,7.78-10.996c-0.473-0.69-0.945-1.381-1.418-2.072c-3.71,0.723-7.67,0.847-11.087,2.274   c-14.882,6.213-29.5,13.063-44.428,19.158c-8.147,3.327-10.683,1.446-10.341-7.157c0.445-11.177,1.57-22.326,2.182-33.499   c0.095-1.743-0.492-4.39-1.668-5.082c-1.099-0.647-3.532,0.492-5.134,1.318c-1.498,0.773-2.674,2.169-3.991,3.292   c-9.965,8.497-19.93,16.994-30.547,26.047c-7.48-17.533-14.644-34.319-21.806-51.104c-2.541,2.374-3.414,4.161-3.803,6.047   c-3.813,18.49-7.46,37.015-11.361,55.485c-0.951,4.503-0.424,7.568,3.464,10.909c8.3,7.129,6.29,20.064-4.039,23.546   C506.85,242.03,506.934,248.248,506.343,255.732z M350.178,244.182c7.22,0,13.786,0,19.136,0   c2.146-10.154,3.631-19.599,6.215-28.731c2.671-9.441,8.172-12.51,19.483-11.035c7.057,0.921,11.13,5.602,11.592,13.022   c0.397,6.376,1.045,12.74,1.357,19.12c0.167,3.393,0.084,7.353,4.742,6.468c4.598-0.873,11.468,4.088,13.477-4.584   c1.325-5.714,2.825-11.388,4.154-17.102c2.851-12.25,2.469-24.441-1.355-36.402c-3.882-12.141-16.376-18.468-35.427-18.23   c-20.072,0.25-32.406,11.402-38.845,27.844C348.523,210.338,348.46,227.087,350.178,244.182z M234.927,269.867   c4.887-2.014,9.313-4.122,13.928-5.663c4.815-1.608,5.075-4.077,2.189-7.636c-7.958-9.815-15.195-20.357-24.089-29.236   c-11.211-11.194-22.616-11.341-36.043-2.589c-5.354,3.489-10.891,6.756-15.921,10.668c-7.886,6.132-16.688,11.669-19.814,22.009   c-0.672,2.225-0.765,5.748,0.527,7.261c8.143,9.537,16.712,18.712,25.276,27.881c0.773,0.827,2.73,1.373,3.752,0.998   c3.878-1.422,7.682-3.114,11.354-5.013c4.445-2.299,6.498-5.015,1.512-9.263c-2.579-2.198-4.832-5.057-6.458-8.039   c-5.799-10.639-5.672-14.246,3.923-19.181c3.026-1.558,5.824-3.554,8.77-5.273c6.443-3.759,12.828-2.338,17.37,3.915   C225.804,257.04,230.323,263.433,234.927,269.867z M505.343,234.221c7.062-1.246,11.952-2.527,11.765-8.557   c-0.17-5.467-4.663-7.412-9.347-7.391c-4.997,0.022-10.176,2.316-9.403,7.886C498.81,229.427,503.4,232.121,505.343,234.221z    M604.048,273.751c4.432-4.58,8.27-7.032,9.746-10.492c1.539-3.606-4.406-8.32-9.543-8.021c-4.872,0.285-9.73,2.48-9.057,7.675   C595.624,266.218,599.979,269.013,604.048,273.751z"/>
	<path fill-rule="evenodd" clip-rule="evenodd" d="M480.098,563.531c3.373,2.839,7.058,5.311,9.954,8.498   c7.214,7.938,6.556,16.752-1.896,24.626c-10.973,10.223-24.917,14.635-38.988,17.938c-21.467,5.041-43.362,7.532-65.44,6.068   c-22.542-1.494-44.87-4.454-65.634-14.355c-8.885-4.236-17.792-9.467-18.343-20.049c-0.543-10.414,7.667-16.204,16.289-20.619   c0.844-0.432,1.493-1.246,3.047-2.586c-8.375-3.827-16.327-7.132-23.984-11.019c-31.579-16.028-57.4-37.642-67.636-73.227   c-6.662-23.163-3.174-45.409,8.991-66.114c18.84-32.07,48.155-50.662,81.813-64.246c35.521-14.335,72.447-19.212,110.123-16.743   c36.564,2.396,71.71,11.561,103.093,31.554c24.258,15.454,43.799,35.456,51.756,63.807c6.179,22.013,3.684,43.982-7.709,64.185   c-17.545,31.115-44.481,51.187-77.171,64.271C492.269,557.96,486.332,560.784,480.098,563.531z M409.477,339.548   c-11.86,0.696-24.013,0-35.513,2.414c-17.599,3.694-35.161,8.423-51.995,14.706c-29.833,11.134-55.703,28.354-72.638,56.269   c-15.449,25.465-17.901,52.12-4.277,79.27c15.249,30.389,41.855,48.029,72.091,59.688c29.93,11.54,61.293,16.327,93.892,14.398   c31.068-1.839,60.627-7.703,88.738-21.192c24.542-11.775,46.266-26.803,60.836-50.399c16.344-26.47,18.722-53.997,4.211-81.958   c-13.025-25.096-34.803-41.207-59.509-52.974C475.185,345.42,442.889,339.571,409.477,339.548z"/>
	<path fill-rule="evenodd" clip-rule="evenodd" d="M703.768,448.314c0.062,9.135-7.776,16.866-17.166,16.93   c-9.414,0.063-17.194-7.536-17.216-16.818c-0.022-9.319,7.628-16.882,17.105-16.909   C695.904,431.491,703.705,439.074,703.768,448.314z"/>
	<path fill-rule="evenodd" clip-rule="evenodd" d="M121.352,498.229c-4.149-1.403-8.694-2.143-12.372-4.336   c-10.592-6.316-10.737-19.646-0.206-26.052c3.619-2.202,8.291-3.444,12.557-3.663c11.562-0.594,20.837,7.062,20.912,16.433   C142.318,490.141,133.327,497.472,121.352,498.229z"/>
	<path fill-rule="evenodd" clip-rule="evenodd" d="M312.571,446.804c-0.557-11.738,3.66-21.468,13.99-27.118   c11.043-6.04,22.479-4.59,32.691,2.503c15.266,10.603,23.607,25.562,21.474,44.098c-2.58,22.409-22.85,33.322-44.323,22.037   C321.669,480.582,312.535,463.735,312.571,446.804z"/>
	<path fill-rule="evenodd" clip-rule="evenodd" d="M496.17,447.436c1.219,9.38-3.194,17.871-9.989,25.021   c-6.709,7.06-15.525,10.302-24.983,7.369c-9.508-2.947-14.051-10.938-15.411-20.461c-1.797-12.578,4.023-30.182,18.004-37.262   c18.183-9.209,31.407,5.002,32.36,18.318C496.291,442.4,496.17,444.399,496.17,447.436z"/>
	<path fill-rule="evenodd" clip-rule="evenodd" d="M581.994,237.053c-0.048,11.674-10.597,21.692-22.917,21.764   c-12.722,0.074-23.455-9.948-23.509-21.949c-0.052-11.787,11.078-22.365,23.338-22.179   C571.652,214.881,582.045,224.947,581.994,237.053z M559.26,222.313c-8.628-0.178-16.065,6.307-16.29,14.203   c-0.222,7.768,7.161,14.668,15.751,14.723c8.487,0.054,15.334-6.004,15.626-13.826C574.656,229.134,568.022,222.495,559.26,222.313   z"/>
</g>
</svg>